# xmcd
#
# Track frame offsets: 
#        150
#        16307
#        34287
#        48237
#        64487
#        80867
#        91037
#        112940
#        125202
#        139275
#        155562
#        167135
#        177065
#        187667
#        202790
#        215432
#        227315
#        241190
#
# Disc length: 3385 seconds
#
# Revision: 0
# Processed by: cddbd v1.5.2PL0 Copyright (c) Steve Scherf et al.
# Submitted via: ExactAudioCopy v0.95b4
#
DISCID=eb0d3712
DTITLE=Willie Nelson - Always On My Mind (Live Bootleg Horizon Records
DTITLE=)
DYEAR=1900
DGENRE=Avantgarde
TTITLE0=Always On My Mind
TTITLE1=The Red Headed Stranger
TTITLE2=Blue Eyes Crying In Rain
TTITLE3=Stardust
TTITLE4=Georgia On My Mind
TTITLE5=On The Road Again
TTITLE6=City Of New Orleans
TTITLE7=Seven Spanish Angels
TTITLE8=Good Hearted Woman
TTITLE9=Angels Flying Too Close To The Ground
TTITLE10=Is There Something On Your Mind
TTITLE11=Broken Promises
TTITLE12=Blame It On Times
TTITLE13=Face Of Fighter
TTITLE14=Shelter Of Your Arms
TTITLE15=End Of Understanding
TTITLE16=Home Is Where You're Happy
TTITLE17=To All The Girls Ive Loved Before
EXTD=
EXTT0=
EXTT1=
EXTT2=
EXTT3=
EXTT4=
EXTT5=
EXTT6=
EXTT7=
EXTT8=
EXTT9=
EXTT10=
EXTT11=
EXTT12=
EXTT13=
EXTT14=
EXTT15=
EXTT16=
EXTT17=
PLAYORDER=
